<svg width="128" height="128" viewBox="0 0 128 128" fill="none" xmlns="http://www.w3.org/2000/svg">
<g filter="url(#filter0_d_85_373)">
<path d="M95.6653 65.5459C95.9264 65.5533 95.9264 65.5533 96.1939 65.6703C96.3633 65.9381 96.3633 65.9381 96.5098 66.2984C96.5656 66.434 96.6214 66.5695 96.6788 66.7092C96.9286 67.3535 97.1748 67.9987 97.4159 68.6459C98.3534 71.1572 99.4145 73.2958 101.215 75.3708C101.324 75.4964 101.433 75.6219 101.545 75.7512C102.386 76.6679 103.346 77.4021 104.387 78.1069C104.461 78.1573 104.535 78.2076 104.612 78.2595C106.784 79.7061 109.288 80.4701 111.778 81.2917C111.932 81.343 111.932 81.343 112.09 81.3954C112.285 81.4604 112.481 81.5249 112.678 81.5886C113.342 81.81 113.342 81.81 113.636 82.0866C113.636 82.3928 113.636 82.3928 113.504 82.7085C113.167 82.8888 113.167 82.8888 112.717 83.0335C112.636 83.0602 112.556 83.087 112.472 83.1146C112.299 83.1719 112.125 83.2281 111.951 83.2832C111.678 83.3696 111.406 83.4589 111.134 83.5492C110.861 83.64 110.588 83.7306 110.314 83.8203C105.358 85.4458 101.175 88.1096 98.8036 92.6655C97.9291 94.4054 97.2817 96.2532 96.5927 98.0634C96.3398 98.7259 96.3398 98.7259 96.1939 99.0004C95.9759 99.0004 95.7578 99.0004 95.5332 99.0004C95.1885 98.3082 94.8914 97.6076 94.6144 96.8896C94.5793 96.7988 94.5441 96.7079 94.5079 96.6143C94.3616 96.2353 94.2157 95.8563 94.0715 95.4767C93.4012 93.716 92.6531 91.9765 91.4699 90.458C91.403 90.3709 91.336 90.2837 91.267 90.1939C88.5969 86.784 84.9234 84.9617 80.7501 83.5946C80.4298 83.4889 80.1097 83.3829 79.7897 83.2763C79.5933 83.211 79.3967 83.1462 79.1998 83.082C78.7892 82.946 78.4553 82.8128 78.0908 82.5841C78.1144 82.2925 78.1144 82.2925 78.223 81.9623C78.5142 81.7887 78.5142 81.7887 78.9022 81.6538C79.0463 81.6024 79.1903 81.551 79.3387 81.4981C79.4937 81.4461 79.6488 81.394 79.8086 81.3404C79.963 81.2873 80.1174 81.2341 80.2765 81.1793C80.6844 81.04 81.093 80.9026 81.5018 80.7658C86.4251 79.1104 90.5602 76.3794 92.9312 71.8881C93.6729 70.3936 94.2345 68.8168 94.8229 67.2646C94.8525 67.1873 94.8821 67.1099 94.9126 67.0303C94.9779 66.8594 95.0424 66.6883 95.1064 66.517C95.3715 65.8225 95.3715 65.8225 95.6653 65.5459Z" fill="url(#paint0_linear_85_373)"/>
</g>
<g filter="url(#filter1_dif_85_373)">
<path d="M101.373 32.529C101.834 33.0647 102.169 33.5883 102.476 34.2333C102.549 34.3859 102.623 34.5384 102.699 34.6956C103.053 35.5598 103.188 36.3477 103.181 37.2824C103.181 37.4322 103.181 37.4322 103.181 37.5849C103.182 37.9164 103.18 38.2479 103.179 38.5794C103.179 38.8182 103.179 39.057 103.179 39.2958C103.179 39.942 103.178 40.5882 103.176 41.2344C103.174 41.9105 103.174 42.5866 103.174 43.2627C103.173 44.542 103.171 45.8214 103.168 47.1007C103.166 48.5576 103.164 50.0145 103.163 51.4714C103.16 54.4675 103.156 57.4636 103.15 60.4596C103.072 60.405 102.994 60.3505 102.913 60.2942C102.81 60.2227 102.707 60.1511 102.601 60.0773C102.499 60.0064 102.398 59.9354 102.293 59.8623C100.567 58.67 98.7705 58.1853 96.7051 58.5609C94.5974 59.0849 92.9271 60.1557 91.7514 62.0631C90.9862 63.395 90.5477 64.9266 90.0729 66.3892C89.4053 68.4412 88.7048 70.2295 87.2793 71.8437C87.2109 71.9271 87.1425 72.0105 87.072 72.0965C85.4236 73.9921 82.8913 74.7675 80.6462 75.5756C78.17 76.4694 76.0517 77.4959 74.7765 80.0244C74.2468 81.1883 74.0318 82.2129 74.0429 83.4925C74.042 83.6051 74.041 83.7177 74.04 83.8337C74.0421 84.5607 74.1462 85.1748 74.3286 85.8752C74.3286 86.0499 74.3286 86.2246 74.3286 86.4047C67.6603 86.4137 60.992 86.4207 54.3237 86.4249C53.5362 86.4254 52.7488 86.4259 51.9613 86.4265C51.8046 86.4266 51.6478 86.4267 51.4863 86.4268C48.9487 86.4285 46.4112 86.4316 43.8737 86.4353C41.2695 86.439 38.6653 86.4412 36.061 86.442C34.4544 86.4426 32.8478 86.4443 31.2412 86.4475C30.1391 86.4496 29.037 86.4502 27.9349 86.4497C27.2993 86.4495 26.6637 86.4499 26.0281 86.452C25.4454 86.4539 24.8628 86.454 24.2801 86.4527C24.0701 86.4525 23.86 86.453 23.65 86.4542C21.3213 86.4673 19.3254 86.0474 17.5971 84.3146C17.5057 84.218 17.4144 84.1215 17.3203 84.0219C17.2473 83.9472 17.1743 83.8725 17.0991 83.7955C15.6907 82.2358 15.3567 80.1546 15.3674 78.0957C15.367 77.917 15.3664 77.7383 15.3656 77.5596C15.3641 77.073 15.3648 76.5864 15.366 76.0997C15.3669 75.5732 15.3655 75.0467 15.3645 74.5202C15.3628 73.4904 15.3632 72.4607 15.3643 71.4309C15.3651 70.5935 15.3652 69.7562 15.3648 68.9188C15.3648 68.7994 15.3647 68.6799 15.3647 68.5569C15.3645 68.3143 15.3644 68.0716 15.3643 67.829C15.3632 65.5564 15.3644 63.2838 15.3665 61.0112C15.3682 59.0637 15.3679 57.1163 15.3661 55.1688C15.3641 52.9043 15.3633 50.6397 15.3645 48.3752C15.3646 48.1334 15.3647 47.8917 15.3648 47.6499C15.3649 47.5309 15.365 47.412 15.365 47.2895C15.3653 46.4538 15.3648 45.618 15.3639 44.7823C15.3628 43.7629 15.3631 42.7435 15.3651 41.7241C15.3661 41.2046 15.3665 40.6851 15.3653 40.1656C15.3641 39.689 15.3648 39.2124 15.3668 38.7357C15.3674 38.4839 15.3662 38.2321 15.3649 37.9802C15.3796 35.703 16 33.8191 17.5266 32.1603C18.9603 30.7664 20.5553 30.126 22.4914 30.1276C22.6172 30.1272 22.7431 30.1267 22.8727 30.1263C23.2969 30.1251 23.7211 30.1248 24.1453 30.1245C24.4515 30.1238 24.7577 30.123 25.0638 30.1222C25.7309 30.1206 26.3979 30.1194 27.065 30.1185C28.057 30.1172 29.049 30.1152 30.041 30.113C31.8128 30.1092 33.5847 30.106 35.3565 30.1033C36.9078 30.1008 38.4591 30.0981 40.0104 30.0952C40.1646 30.0949 40.1646 30.0949 40.322 30.0946C40.7395 30.0938 41.157 30.093 41.5745 30.0923C45.4932 30.0849 49.4119 30.0782 53.3306 30.072C56.811 30.0664 60.2913 30.0601 63.7716 30.0532C67.6814 30.0455 71.5911 30.0383 75.5009 30.0317C75.918 30.031 76.3351 30.0303 76.7521 30.0296C76.8548 30.0294 76.9575 30.0293 77.0633 30.0291C78.6127 30.0265 80.1621 30.0235 81.7115 30.0204C83.4745 30.0169 85.2375 30.0138 87.0005 30.0114C87.9866 30.01 88.9727 30.0083 89.9588 30.006C90.696 30.0044 91.4332 30.0034 92.1704 30.0027C92.468 30.0023 92.7656 30.0017 93.0632 30.0009C96.2779 29.9918 98.9719 30.0054 101.373 32.529ZM41.8805 42.5149C41.1261 43.5675 41.044 44.7011 41.0454 45.9674C41.045 46.0775 41.0446 46.1876 41.0442 46.3011C41.0431 46.6683 41.0429 47.0355 41.0427 47.4027C41.0421 47.6668 41.0415 47.9308 41.0408 48.1948C41.0392 48.9109 41.0383 49.6269 41.0378 50.3429C41.0374 50.7906 41.0369 51.2383 41.0363 51.686C41.0346 53.0877 41.0334 54.4893 41.0329 55.891C41.0323 57.5073 41.0301 59.1235 41.0264 60.7398C41.0236 61.9905 41.0224 63.2412 41.0222 64.4918C41.0221 65.2382 41.0213 65.9846 41.019 66.731C41.0169 67.4332 41.0167 68.1354 41.0178 68.8376C41.0179 69.0947 41.0173 69.3518 41.0161 69.6089C40.9925 72.1232 40.9925 72.1232 42.2059 74.2264C42.9966 74.9624 43.8184 75.2398 44.8722 75.2854C45.9114 75.2155 46.7567 74.7057 47.4512 73.912C48.218 72.9106 48.3197 71.8442 48.3173 70.6045C48.3177 70.4403 48.3177 70.4403 48.3182 70.2728C48.319 69.907 48.3189 69.5412 48.3188 69.1754C48.3192 68.9127 48.3196 68.65 48.3201 68.3873C48.3212 67.6742 48.3215 66.9612 48.3216 66.2482C48.3217 65.8024 48.3219 65.3567 48.3223 64.9109C48.3234 63.3551 48.324 61.7992 48.3239 60.2433C48.3238 58.7943 48.3251 57.3454 48.3271 55.8964C48.3288 54.6514 48.3295 53.4063 48.3294 52.1613C48.3294 51.4181 48.3297 50.675 48.3311 49.9319C48.3323 49.2326 48.3323 48.5333 48.3314 47.834C48.3312 47.578 48.3315 47.322 48.3323 47.066C48.3943 44.5147 48.3943 44.5147 47.2846 42.3246C46.3523 41.5254 45.5078 41.1858 44.2999 41.2072C43.364 41.3305 42.5198 41.7893 41.8805 42.5149ZM71.0275 42.7217C70.5106 43.5537 70.3737 44.3093 70.374 45.282C70.3735 45.396 70.373 45.51 70.3725 45.6275C70.3711 46.011 70.3706 46.3945 70.3702 46.778C70.3694 47.0524 70.3685 47.3267 70.3676 47.6011C70.3654 48.3478 70.3641 49.0945 70.363 49.8412C70.3624 50.3078 70.3616 50.7743 70.3608 51.2409C70.3584 52.7008 70.3566 54.1608 70.3555 55.6207C70.3543 57.3056 70.351 58.9905 70.3458 60.6754C70.342 61.9778 70.3401 63.2801 70.3397 64.5825C70.3394 65.3603 70.3383 66.138 70.3351 66.9158C70.3321 67.648 70.3316 68.3802 70.3329 69.1124C70.3329 69.3806 70.3321 69.6488 70.3304 69.9169C70.3047 72.0906 70.3047 72.0906 71.2021 74.0113C71.9342 74.7746 72.719 75.1935 73.7459 75.2879C74.7908 75.2797 75.7039 74.9455 76.4985 74.2403C77.278 73.3445 77.5218 72.3162 77.5206 71.1407C77.521 71.0271 77.5214 70.9136 77.5218 70.7966C77.5229 70.4146 77.5231 70.0326 77.5233 69.6507C77.5238 69.3774 77.5245 69.1041 77.5252 68.8308C77.5268 68.0871 77.5277 67.3434 77.5282 66.5997C77.5286 66.1351 77.5291 65.6705 77.5297 65.2059C77.5314 63.7523 77.5326 62.2986 77.5331 60.845C77.5337 59.167 77.5359 57.489 77.5396 55.811C77.5424 54.5141 77.5436 53.2172 77.5438 51.9204C77.5439 51.1458 77.5447 50.3712 77.547 49.5966C77.5491 48.8676 77.5493 48.1386 77.5482 47.4095C77.5481 47.1423 77.5487 46.8752 77.5499 46.608C77.5515 46.2423 77.5508 45.8768 77.5495 45.5111C77.5505 45.4062 77.5515 45.3012 77.5526 45.1931C77.5418 43.9132 77.1481 43.0017 76.2986 42.0831C75.4787 41.3438 74.6086 41.178 73.5435 41.2248C72.4649 41.348 71.7511 41.8871 71.0275 42.7217ZM27.3507 50.7964C26.6449 51.7176 26.4237 52.6901 26.4251 53.8605C26.4242 53.9642 26.4234 54.0679 26.4225 54.1747C26.4201 54.515 26.4196 54.8554 26.4193 55.1957C26.4185 55.4343 26.4176 55.6728 26.4167 55.9114C26.4152 56.4108 26.4148 56.9101 26.4149 57.4095C26.4149 58.0461 26.4115 58.6826 26.4071 59.3192C26.4043 59.8119 26.4037 60.3045 26.4039 60.7972C26.4036 61.0317 26.4025 61.2662 26.4005 61.5007C26.3885 63.0745 26.4029 64.6034 27.506 65.8207C28.3883 66.5971 29.27 66.8665 30.4054 66.8492C31.4196 66.7523 32.1264 66.2906 32.8371 65.5544C33.7291 64.2609 33.6448 62.9696 33.6351 61.4354C33.6351 61.1814 33.6353 60.9274 33.6357 60.6735C33.6358 60.1428 33.6343 59.6123 33.6314 59.0816C33.6278 58.4035 33.6281 57.7254 33.6297 57.0472C33.6306 56.5233 33.6296 55.9995 33.628 55.4756C33.6275 55.2256 33.6274 54.9756 33.6279 54.7256C33.6283 54.3756 33.6262 54.0257 33.6234 53.6758C33.6243 53.5227 33.6243 53.5227 33.6252 53.3666C33.6101 52.211 33.2175 51.3723 32.4622 50.5296C31.8087 49.9309 30.9874 49.6436 30.1281 49.572C29.0446 49.6449 28.1302 49.9928 27.3507 50.7964ZM56.6802 50.7964C55.9598 51.7389 55.7731 52.4181 55.7669 53.6135C55.7659 53.7238 55.7648 53.8341 55.7638 53.9477C55.7606 54.3124 55.7585 54.677 55.7567 55.0417C55.756 55.1666 55.7553 55.2915 55.7546 55.4202C55.7512 56.0817 55.7488 56.7433 55.7469 57.4048C55.7453 57.9508 55.7417 58.4967 55.7365 59.0426C55.7303 59.7032 55.7271 60.3638 55.7262 61.0245C55.7254 61.2754 55.7235 61.5263 55.7204 61.7771C55.7016 63.4133 55.7681 64.5819 56.8309 65.8704C57.6276 66.6292 58.5673 66.9113 59.6341 66.8642C60.6035 66.7227 61.5075 66.2815 62.1398 65.4898C62.7061 64.5206 62.9201 63.7313 62.924 62.6032C62.9249 62.4995 62.9257 62.3959 62.9266 62.2892C62.9291 61.9467 62.9306 61.6041 62.9318 61.2616C62.9323 61.1442 62.9329 61.0267 62.9334 60.9057C62.936 60.2835 62.9379 59.6613 62.939 59.039C62.9404 58.3993 62.9448 57.7597 62.9499 57.1199C62.9532 56.6256 62.9542 56.1312 62.9547 55.6369C62.9553 55.4012 62.9568 55.1656 62.9591 54.93C62.9729 53.4669 62.9225 52.2447 62.1794 50.9536C61.3324 50.1182 60.5208 49.695 59.3624 49.5637C58.3193 49.6725 57.4306 50.0191 56.6802 50.7964ZM85.8826 50.7964C85.1592 51.7407 84.9543 52.7153 84.9557 53.8974C84.9551 54.0016 84.9546 54.1059 84.954 54.2133C84.9533 54.4328 84.9532 54.6523 84.9538 54.8718C84.9542 55.2038 84.9512 55.5357 84.948 55.8677C84.9413 57.546 85.0294 58.7914 86.208 60.0439C87.0897 60.8512 87.9396 60.9527 89.1 60.9152C90.1576 60.7822 90.8497 60.2724 91.5362 59.4477C92.0558 58.5811 92.1615 57.7925 92.1546 56.7946C92.1552 56.6155 92.1552 56.6155 92.1557 56.4328C92.156 56.1818 92.1553 55.9308 92.1537 55.6799C92.1517 55.2982 92.1537 54.9166 92.1561 54.5349C92.1559 54.2898 92.1554 54.0447 92.1546 53.7996C92.1554 53.6868 92.1562 53.574 92.157 53.4577C92.1435 52.2501 91.7797 51.4129 90.9851 50.5296C90.2978 49.8796 89.5626 49.6464 88.6521 49.572C87.5719 49.6458 86.6595 49.9955 85.8826 50.7964Z" fill="url(#paint1_linear_85_373)"/>
</g>
<defs>
<filter id="filter0_d_85_373" x="69.7272" y="57.1823" width="52.2732" height="58.545" filterUnits="userSpaceOnUse" color-interpolation-filters="sRGB">
<feFlood flood-opacity="0" result="BackgroundImageFix"/>
<feColorMatrix in="SourceAlpha" type="matrix" values="0 0 0 0 0 0 0 0 0 0 0 0 0 0 0 0 0 0 127 0" result="hardAlpha"/>
<feOffset dy="8.36364"/>
<feGaussianBlur stdDeviation="4.18182"/>
<feComposite in2="hardAlpha" operator="out"/>
<feColorMatrix type="matrix" values="0 0 0 0 0 0 0 0 0 0 0 0 0 0 0 0 0 0 0.25 0"/>
<feBlend mode="normal" in2="BackgroundImageFix" result="effect1_dropShadow_85_373"/>
<feBlend mode="normal" in="SourceGraphic" in2="effect1_dropShadow_85_373" result="shape"/>
</filter>
<filter id="filter1_dif_85_373" x="6.99964" y="23.7273" width="104.546" height="73.1814" filterUnits="userSpaceOnUse" color-interpolation-filters="sRGB">
<feFlood flood-opacity="0" result="BackgroundImageFix"/>
<feColorMatrix in="SourceAlpha" type="matrix" values="0 0 0 0 0 0 0 0 0 0 0 0 0 0 0 0 0 0 127 0" result="hardAlpha"/>
<feOffset dy="2.09091"/>
<feGaussianBlur stdDeviation="4.18182"/>
<feComposite in2="hardAlpha" operator="out"/>
<feColorMatrix type="matrix" values="0 0 0 0 0 0 0 0 0 0 0 0 0 0 0 0 0 0 0.18 0"/>
<feBlend mode="normal" in2="BackgroundImageFix" result="effect1_dropShadow_85_373"/>
<feBlend mode="normal" in="SourceGraphic" in2="effect1_dropShadow_85_373" result="shape"/>
<feColorMatrix in="SourceAlpha" type="matrix" values="0 0 0 0 0 0 0 0 0 0 0 0 0 0 0 0 0 0 127 0" result="hardAlpha"/>
<feOffset/>
<feGaussianBlur stdDeviation="4.18182"/>
<feComposite in2="hardAlpha" operator="arithmetic" k2="-1" k3="1"/>
<feColorMatrix type="matrix" values="0 0 0 0 0.913462 0 0 0 0 0.913462 0 0 0 0 0.913462 0 0 0 0.25 0"/>
<feBlend mode="normal" in2="shape" result="effect2_innerShadow_85_373"/>
<feGaussianBlur stdDeviation="0.9" result="effect3_foregroundBlur_85_373"/>
</filter>
<linearGradient id="paint0_linear_85_373" x1="95.8635" y1="65.5459" x2="95.8635" y2="99.0004" gradientUnits="userSpaceOnUse">
<stop stop-color="#B3FFF7"/>
<stop offset="1" stop-color="#0DAA9A"/>
</linearGradient>
<linearGradient id="paint1_linear_85_373" x1="59.2724" y1="30" x2="59.2724" y2="86.4545" gradientUnits="userSpaceOnUse">
<stop stop-color="#F6ECEC"/>
<stop offset="1" stop-color="#4A4A4A" stop-opacity="0.6"/>
</linearGradient>
</defs>
</svg>
